<svg  version="1.0" xmlns="http://www.w3.org/2000/svg" xmlns:xlink="http://www.w3.org/1999/xlink" width="100%" height="100%" viewBox="0 0 340.000000 250.000000" preserveAspectRatio="xMidYMid meet" color-interpolation-filters="sRGB" class="el-tooltip" style="margin: auto;">  <g data-v-09eb608e="" fill="#333" class="newinitialsvg-g newinitialsvg" transform="translate(138.822998046875,93.822998046875)"><g class="tp-name"><g transform="translate(0, 0)" mask="url(#fe49e148d20a5c59ef97c24c3c5485f0)"><rect fill="#333" x="0" y="-3" width="62.35400390625" height="62.35400390625" rx="31.177001953125"></rect> <g fill="#fff" transform="translate(11.022001266479492,3)"><path d="M4.75 10.12L4.46 10.10L4.46 10.10Q4.62 9.78 4.73 9.60L4.73 9.60L4.73 9.60Q4.83 9.43 5.44 8.80L5.44 8.80L5.44 8.80Q6.04 8.16 6.63 7.39L6.63 7.39L9.35 3.76L9.35 3.76Q10.02 2.85 10.39 2.52L10.39 2.52L11.15 1.91L11.15 1.91Q11.23 1.83 11.60 1.30L11.60 1.30L11.60 1.30Q11.98 0.78 12.17 0.62L12.17 0.62L12.97 0.03L12.97 0.03Q13.05-0.03 13.44-0.56L13.44-0.56L13.44-0.56Q13.83-1.10 14.17-1.46L14.17-1.46L14.17-1.46Q14.50-1.83 14.61-1.99L14.61-1.99L14.80-2.31L14.80-2.31Q14.80-2.31 15.25-2.85L15.25-2.85L15.55-3.20L16.46-3.79L16.46-3.79Q16.60-4.40 16.70-4.58L16.70-4.58L16.70-4.58Q16.81-4.75 17.51-5.51L17.51-5.51L17.51-5.51Q18.61-6.71 18.92-7.20L18.92-7.20L18.92-7.20Q19.23-7.68 19.54-8.27L19.54-8.27L19.54-8.27Q19.85-8.86 20.03-9.16L20.03-9.16L21.54-11.31L21.78-12.03L21.78-12.03Q22.16-12.92 22.75-13.59L22.75-13.59L22.75-13.59Q23.42-14.29 23.59-14.56L23.59-14.56L23.59-14.56Q23.77-14.82 25.19-18.48L25.19-18.48L25.03-18.64L25.03-18.64Q25.03-19.01 25.11-19.20L25.11-19.20L25.43-19.63L25.43-19.63Q25.54-19.82 25.55-19.94L25.55-19.94L25.55-19.94Q25.57-20.06 25.51-20.24L25.51-20.24L25.51-20.24Q25.46-20.41 25.41-20.49L25.41-20.49L24.65-20.30L24.33-20.33L24.33-20.33Q24.30-20.33 24.25-20.33L24.25-20.33L24.25-20.33Q22.67-20.28 20.52-19.71L20.52-19.71L18.83-19.34L18.83-19.34Q16.76-18.80 16.38-18.56L16.38-18.56L16.38-18.56Q15.71-18.56 15.42-18.50L15.42-18.50L13.51-17.99L13.19-18.07L12.78-17.97L12.78-17.97Q12.46-18.07 12.30-18.10L12.30-18.10L10.47-18.26L10.47-18.26Q10.26-18.37 10.07-18.48L10.07-18.48L10.07-18.48Q9.08-18.69 8.51-19.20L8.51-19.20L8.51-19.63L8.51-19.63Q8.67-19.79 8.75-19.90L8.75-19.90L9.78-21.35L10.58-22.13L10.66-22.59L11.20-22.91L11.20-22.91Q12.35-22.88 13.83-23.55L13.83-23.55L14.93-23.12L14.93-23.12Q15.71-23.26 16.07-23.39L16.07-23.39L16.07-23.39Q16.44-23.53 17.19-23.66L17.19-23.66L18.42-24.09L19.23-24.25L20.01-24.52L20.76-24.36L20.76-24.36Q21.51-24.81 22.21-24.95L22.21-24.95L23.77-25.14L25.59-25.59L25.83-25.35L25.83-25.35Q26.05-25.41 26.18-25.46L26.18-25.46L26.94-25.94L26.94-25.94Q27.29-26.10 27.85-26.05L27.85-26.05L27.85-26.05Q28.65-26.29 29.08-26.40L29.08-26.40L30.56-26.61L33.11-27.10L33.11-27.10Q33.52-27.02 34.05-27.31L34.05-27.31L34.99-27.18L34.99-27.18Q35.31-27.34 35.50-27.37L35.50-27.37L36.55-27.29L37.17-27.42L37.71-27.42L37.71-27.42Q37.73-27.42 38.15-27.50L38.15-27.50L38.15-27.50Q38.56-27.58 39.10-27.37L39.10-27.37L39.10-27.37Q40.20-27.82 41.93-27.70L41.93-27.70L41.93-27.70Q43.67-27.58 43.90-27.30L43.90-27.30L43.90-27.30Q44.12-27.02 44.41-26.20L44.41-26.20L44.41-26.20Q44.69-25.38 44.77-24.87L44.77-24.87L44.77-24.87Q44.39-24.30 44.39-24.17L44.39-24.17L44.26-23.53L44.26-23.53Q43.77-23.26 43.55-23.07L43.55-23.07L43.55-23.07Q43.32-22.88 42.92-22.77L42.92-22.77L42.49-22.80L41.84-22.45L41.84-22.45Q41.71-22.45 41.68-22.45L41.68-22.45L40.42-22.26L40.42-22.26Q40.34-22.24 39.97-22.25L39.97-22.25L39.97-22.25Q39.61-22.26 39.34-22.26L39.34-22.26L39.34-22.26Q38.56-22.21 37.75-22.01L37.75-22.01L37.75-22.01Q36.93-21.81 36.74-21.81L36.74-21.81L35.40-21.75L34.59-21.48L33.44-21.43L31.98-21.16L31.98-21.16Q31.56-21.16 31.31-21.05L31.31-21.05L31.31-21.05Q31.15-20.65 31.10-20.46L31.10-20.46L30.59-18.56L30.59-18.56Q30.29-17.62 30.16-17.46L30.16-17.46L28.65-15.33L28.76-14.64L28.76-14.64Q29.03-14.39 29.18-14.38L29.18-14.38L29.18-14.38Q29.33-14.37 29.43-14.42L29.43-14.42L29.89-14.58L31.04-14.77L31.80-14.93L33.09-14.96L34.00-15.25L34.27-15.23L34.27-15.23Q34.43-15.25 34.51-15.28L34.51-15.28L35.69-14.99L36.09-14.93L36.09-14.93Q36.44-14.61 36.66-14.58L36.66-14.58L37.14-14.50L37.14-14.50Q37.57-14.31 37.87-14.07L37.87-14.07L37.97-14.07L37.97-14.07Q38.62-13.27 38.70-13.09L38.70-13.09L38.70-13.09Q38.78-12.92 38.81-12.70L38.81-12.70L38.86-12.17L38.99-11.49L38.99-11.04L39.02-10.50L38.83-9.78L38.86-8.43L38.86-8.43Q38.83-8.33 38.81-7.92L38.81-7.92L38.81-7.92Q38.78-7.52 38.78-7.49L38.78-7.49L38.56-6.88L38.56-6.88Q38.59-6.55 38.60-6.28L38.60-6.28L38.60-6.28Q38.62-6.02 38.38-5.51L38.38-5.51L38.38-5.51Q38.13-5.00 37.89-4.30L37.89-4.30L37.60-3.63L37.38-2.93L37.38-2.93Q37.28-2.66 36.94-2.18L36.94-2.18L36.94-2.18Q36.60-1.69 36.60-1.53L36.60-1.53L36.58-1.26L36.58-1.26Q36.55-1.18 36.17-0.81L36.17-0.81L35.53 0.38L35.07 1.02L34.51 1.93L32.92 3.44L32.92 3.44Q32.07 4.51 32.01 4.54L32.01 4.54L31.69 4.73L31.42 5.02L31.42 5.02Q31.34 5.10 31.09 5.24L31.09 5.24L31.09 5.24Q30.83 5.37 30.10 6.00L30.10 6.00L30.10 6.00Q29.38 6.63 29.25 6.69L29.25 6.69L29.25 6.69Q29.11 6.74 28.82 6.81L28.82 6.81L28.82 6.81Q28.52 6.88 28.23 7.02L28.23 7.02L28.23 7.02Q27.93 7.17 27.55 7.79L27.55 7.79L27.55 7.79Q27.02 7.90 26.33 8.08L26.33 8.08L26.33 8.08Q25.65 8.27 25.31 8.22L25.31 8.22L25.31 8.22Q24.98 8.16 24.80 7.94L24.80 7.94L24.80 7.94Q24.63 7.71 24.52 7.22L24.52 7.22L24.41 5.94L23.93 5.29L23.36 5.05L23.36 5.05Q23.42 4.46 23.55 4.40L23.55 4.40L24.22 4.03L24.38 3.54L23.74 2.93L23.74 2.93Q23.74 2.69 23.77 2.63L23.77 2.63L23.98 2.15L25.35 1.61L25.35 1.61Q25.62 1.69 25.78 1.72L25.78 1.72L26.32 1.96L26.32 1.96Q26.56 2.07 26.83 2.09L26.83 2.09L27.66 2.12L27.66 2.12Q28.79 2.26 28.84 2.36L28.84 2.36L29.03 2.77L29.03 2.77Q29.38 2.87 29.72 2.74L29.72 2.74L29.72 2.74Q30.05 2.60 31.34 1.40L31.34 1.40L32.15 0.70L32.90-0.13L33.73-1.05L33.73-1.05Q34.21-1.64 34.59-2.50L34.59-2.50L34.59-2.50Q34.97-3.36 35.07-3.68L35.07-3.68L35.26-4.40L35.26-4.40Q35.58-5.53 35.61-5.61L35.61-5.61L35.56-6.47L35.56-6.63L35.56-6.63Q35.50-6.98 35.45-7.17L35.45-7.17L35.15-7.87L34.99-8.46L34.51-9.08L34.21-9.10L34.21-9.10Q33.19-8.84 32.41-8.92L32.41-8.92L32.41-8.92Q31.31-8.49 31.13-8.46L31.13-8.46L30.24-8.30L29.35-8.00L28.95-8.00L28.04-7.71L28.04-7.71Q26.86-7.44 26.37-7.49L26.37-7.49L25.81-7.57L25.27-7.25L25.27-7.25Q24.98-7.17 24.87-7.12L24.87-7.12L23.79-5.85L22.93-5.00L22.85-4.46L22.85-4.46Q22.45-4.27 22.29-3.87L22.29-3.87L22.29-3.87Q21.97-3.65 21.86-3.54L21.86-3.54L21.14-2.47L20.68-1.99L20.46-1.61L19.98-1.56L19.55-0.91L19.55-0.91Q18.91-0.62 18.88-0.48L18.88-0.48L18.64 0.03L18.64 0.03Q17.91 0.43 17.62 0.67L17.62 0.67L16.25 2.01L14.90 2.77L14.90 2.98L14.90 2.98Q14.45 3.17 14.26 3.28L14.26 3.28L13.64 3.79L13.64 3.79Q13.48 3.92 13.05 4.19L13.05 4.19L13.05 4.19Q12.62 4.46 12.43 4.62L12.43 4.62L12.00 5.00L11.04 5.56L10.55 5.94L9.94 6.31L4.75 10.12ZM22.29-29.22L22.29-29.22L22.29-29.22Q23.71-30.62 24.80-32.03L24.80-32.03L24.80-32.03Q25.89-33.44 26.05-33.80L26.05-33.80L26.05-33.80Q26.21-34.16 26.29-34.72L26.29-34.72L25.41-35.18L24.84-35.80L24.87-36.66L24.87-36.66Q25.19-36.90 25.35-37.06L25.35-37.06L26.16-38.56L26.16-38.56Q26.40-38.99 26.57-39.11L26.57-39.11L26.57-39.11Q26.75-39.24 27.29-39.48L27.29-39.48L28.57-40.15L29.14-40.23L30.00-39.69L30.00-39.69Q31.31-39.69 31.61-39.34L31.61-39.34L31.85-38.97L31.98-38.83L31.98-38.83Q32.28-38.38 32.40-38.08L32.40-38.08L32.40-38.08Q32.52-37.79 32.59-37.38L32.59-37.38L32.59-37.38Q32.66-36.98 32.74-36.71L32.74-36.71L32.74-36.71Q32.82-36.44 32.84-36.44L32.84-36.44L32.84-36.25L32.84-35.83L32.84-35.83Q32.71-35.61 32.68-35.50L32.68-35.50L32.66-34.86L32.66-34.86Q32.63-34.72 32.56-34.54L32.56-34.54L32.56-34.54Q32.50-34.35 31.90-33.60L31.90-33.60L31.82-33.33L31.82-33.33Q31.58-33.22 31.50-33.17L31.50-33.17L30.86-32.74L30.08-32.39L29.41-32.01L29.41-32.01Q29.25-31.93 28.71-31.85L28.71-31.85L28.71-31.85Q28.17-31.77 28.12-31.82L28.12-31.82L27.07-32.28L27.07-32.28Q26.10-31.96 25.62-31.56L25.62-31.56L24.79-30.80L23.36-29.73L23.36-29.73Q22.67-28.98 22.50-29.11L22.50-29.11L22.29-29.22Z" transform="translate(-4.4580078125, 40.2294921875)"></path></g></g></g> <!----></g></svg>